<?xml version="1.0" standalone="no"?>
<!DOCTYPE svg PUBLIC "-//W3C//DTD SVG 20010904//EN"
 "http://www.w3.org/TR/2001/REC-SVG-20010904/DTD/svg10.dtd">
<svg version="1.0" xmlns="http://www.w3.org/2000/svg"
 width="1087.000000pt" height="1087.000000pt" viewBox="0 0 1087.000000 1087.000000"
 preserveAspectRatio="xMidYMid meet">

<g transform="translate(0.000000,1087.000000) scale(0.100000,-0.100000)"
fill="#000000" stroke="none">
<path d="M5325 9519 c-276 -17 -479 -71 -720 -190 -459 -226 -747 -621 -830
-1139 -20 -127 -20 -419 0 -559 51 -345 189 -625 426 -862 312 -312 750 -482
1239 -482 799 0 1443 459 1625 1158 43 166 58 310 52 500 -11 351 -89 618
-250 863 -159 241 -336 396 -602 527 -213 106 -450 169 -671 181 -60 3 -120 6
-134 8 -14 1 -75 -1 -135 -5z m395 -663 c403 -93 679 -336 769 -680 28 -105
44 -266 36 -356 -37 -431 -313 -742 -764 -862 -103 -27 -136 -31 -291 -36
-136 -3 -195 0 -264 12 -345 65 -618 249 -750 506 -82 160 -108 277 -108 480
0 157 27 281 87 409 140 293 455 503 830 551 117 15 336 3 455 -24z"/>
<path d="M5343 8206 c-148 -48 -227 -156 -225 -305 0 -64 5 -84 34 -140 78
-154 259 -213 420 -137 189 89 235 337 93 494 -73 81 -221 121 -322 88z"/>
<path d="M5195 6123 c-95 -9 -287 -44 -367 -67 -537 -156 -874 -541 -1012
-1156 -53 -239 -59 -310 -63 -826 -4 -438 -3 -482 12 -498 15 -15 73 -16 678
-14 l662 3 3 323 2 322 -376 0 -377 0 6 183 c4 127 12 211 27 279 97 458 372
728 805 793 129 19 364 19 484 0 345 -56 590 -244 714 -546 66 -160 95 -320
101 -561 l4 -148 -374 0 -374 0 2 -322 3 -323 658 -3 c442 -1 664 1 678 8 18
10 19 24 19 398 0 213 -5 441 -10 507 -48 552 -206 953 -490 1235 -289 289
-673 423 -1195 418 -99 -1 -198 -3 -220 -5z"/>
<path d="M3772 3438 c-9 -9 -12 -200 -12 -800 l0 -788 310 0 310 0 0 475 0
475 380 0 380 0 0 -668 c0 -506 3 -671 12 -680 17 -17 569 -17 586 0 9 9 12
174 12 680 l0 668 380 0 380 0 0 -475 0 -475 305 0 305 0 0 788 c0 600 -3 791
-12 800 -17 17 -3319 17 -3336 0z"/>
</g>
</svg>
